<svg width="907" height="755" viewBox="0 0 907 755" fill="none" xmlns="http://www.w3.org/2000/svg">
<g clip-path="url(#clip0)">
<path d="M761.885 75.6592C723.425 36.2787 661.802 4.62663 605.83 12.1839C583.869 15.1519 559.195 28.5985 549.536 49.3197C539.632 70.5664 544.868 93.6574 553.023 114.704C575.6 172.934 622.2 218.163 648.812 274.246C661.05 300.033 672.814 370.492 630.61 372.139C589.709 373.731 548.598 333.849 519.081 309.727C463.577 264.366 389.962 201.135 312.932 228.778C269.293 244.437 284.847 294.559 300.022 325.795C326.074 379.423 365.337 426.995 401.037 474.379C415.597 493.699 430.807 513.001 442.784 534.074C462.452 568.673 463.991 634.37 409.909 631.214C369.853 628.881 339.538 576.696 319.493 547.456C298.238 516.446 276.483 485.619 254.472 455.134C217.275 403.623 154.963 325.7 81.8357 351.419C33.6756 368.353 72.1464 437.853 87.9013 464.356C106.247 495.235 128.315 524.246 152.034 551.191C186.929 590.84 233.612 618.919 262.116 664.388C271.644 679.587 286.881 719.607 264.761 731.471C249.813 739.489 226.366 727.637 212.711 721.385C179.311 706.084 149.559 683.915 119.325 663.308C116.539 661.407 113.663 665.743 116.453 667.647C156.203 694.743 200.834 734.24 250.327 739.633C270.051 741.78 280.645 728.753 281.692 710.203C283.878 671.337 253.566 638.649 227.946 613.288C204.341 589.91 177.724 569.732 155.858 544.624C137.26 523.267 120.178 500.447 104.69 476.754C89.161 452.997 73.7464 426.779 68.1485 398.674C61.8733 367.166 84.4239 356.072 112.573 356.977C156.993 358.406 192.817 397.091 219.132 428.933C245.512 460.849 266.916 496.384 291.065 529.92C322.998 574.276 384.509 690.428 453.403 633.632C479.544 612.079 472.13 563.305 459.825 536.388C451.286 517.715 437.42 500.816 425.174 484.506C388.458 435.62 348.311 388.572 318.399 335.021C307.339 315.225 295.459 292.118 296.61 268.86C297.752 245.685 320.708 239.435 340.11 237.686C387.123 233.45 431.596 262.85 467.556 289.805C503.1 316.441 535.123 347.968 573.622 370.467C598.374 384.934 635.336 399.847 659.746 377.537C683.434 355.881 677.108 307.951 668.012 281.056C659.177 254.922 641.117 231.36 625.427 209.005C606.332 181.801 586.228 155.086 570.357 125.811C554.872 97.2488 542.739 60.8257 570.897 36.3729C600.494 10.6632 643.784 17.1476 677.826 29.2534C737.354 50.4195 842.628 134.55 770.588 198.729C769.378 199.812 771.011 201.69 772.255 200.647C816.517 163.644 797.222 111.845 761.885 75.6592Z" fill="#F2EBE0"/>
<path d="M238.577 550.56C229.83 540.498 249.146 521.064 261.702 510.149C279.075 495.047 315.606 465.934 324.353 475.996C333.1 486.059 299.186 518.182 281.813 533.284C269.268 544.189 245.314 558.31 238.577 550.56ZM255.204 502.674C228.906 525.534 216.194 550.958 225.631 561.814C235.068 572.67 262.014 563.621 288.311 540.76C290.65 538.727 292.833 536.673 294.948 534.616L737.24 125.094C740.684 121.981 741.752 117.58 739.655 115.167C737.555 112.751 733.05 113.2 729.489 116.177L262.323 496.872C259.954 498.706 257.576 500.611 255.204 502.674Z" fill="#F2EBE0"/>
</g>
<defs>
<clipPath id="clip0">
<rect width="876.845" height="459.671" fill="white" transform="translate(-57 468.262) rotate(-41)"/>
</clipPath>
</defs>
</svg>
