<svg width="454" height="319" viewBox="0 0 454 319" fill="none" xmlns="http://www.w3.org/2000/svg">
<path d="M230.045 237.365C221.153 245.543 211.31 252.701 200.713 258.693C174.95 272.378 145.164 277.197 116.294 272.352C87.4244 267.506 61.2038 253.287 41.9786 232.05C22.7535 210.814 11.6782 183.836 10.5888 155.589C9.49931 127.341 18.461 99.52 35.9884 76.7369C53.5159 53.9539 78.5564 37.5771 106.96 30.321C135.363 23.065 165.423 25.3654 192.157 36.8411C218.891 48.3167 240.694 68.2784 253.952 93.4174C267.21 118.556 271.126 147.363 265.052 175.062L265.084 175.429C265.064 176.509 264.821 177.576 264.369 178.567C262.108 187.349 258.883 195.88 254.748 204.015C258.524 202.015 262.608 200.619 266.84 199.881C281.67 197.477 293.823 205.364 300.58 230.394C301.685 240.109 302.991 249.191 318.878 248.663C325.423 248.17 331.834 246.568 337.815 243.93C333.205 238.063 330.897 230.806 331.296 223.431C331.37 220.8 332.013 218.208 333.185 215.823C334.356 213.438 336.03 211.311 338.099 209.58C343.229 205.44 350.644 204.422 360.367 208.616C373.089 214.239 375.133 223.01 370.711 232.317C368.846 236.096 366.195 239.469 362.924 242.225C378.103 240.897 396.632 240.261 412.968 243.753C430.727 247.459 445.976 256.059 452.263 273.902C452.785 275.418 452.671 277.074 451.944 278.516C451.217 279.959 449.935 281.075 448.373 281.625C447.576 281.891 446.733 282.003 445.894 281.954C445.054 281.905 444.234 281.695 443.481 281.338C442.728 280.98 442.057 280.481 441.507 279.871C440.957 279.26 440.539 278.55 440.277 277.781C435.703 264.924 424.058 258.469 410.19 255.807C395.281 252.559 377.788 253.351 363.369 254.613C358.357 255.163 353.292 254.428 348.686 252.483C339.687 257.388 329.667 260.273 319.376 260.922C302.855 261.506 289.135 254.341 288.204 233.107C283.545 216.352 276.834 210.818 268.888 211.975C251.692 214.709 237.425 233.397 230.148 237.448L230.045 237.365ZM348.994 237.754C354.631 233.939 366.045 224.605 355.056 219.815C350.406 217.761 347.607 217.883 346.076 219.001C341.062 223.008 345.208 233.902 348.994 237.754ZM246.962 107.717C246.094 108.096 245.156 108.304 244.205 108.327C219.677 109.699 195.849 116.931 174.87 129.372C179.021 134.464 183.613 139.207 188.596 143.55C194.47 140.159 200.623 137.244 206.993 134.836C221.673 129.313 237.393 126.889 253.087 127.727C251.645 120.963 249.622 114.33 247.041 107.894L246.962 107.717ZM164.268 136.298C158.802 140.224 153.607 144.491 148.717 149.069C153.081 154.06 157.76 158.787 162.728 163.222C167.453 158.68 172.479 154.439 177.775 150.526C172.893 146.118 168.348 141.376 164.175 136.336L164.268 136.298ZM141.114 139.184C146.131 134.673 151.412 130.442 156.93 126.513C154.136 122.549 151.57 118.441 149.243 114.205C143.658 118.119 138.323 122.355 133.269 126.891C135.679 131.079 138.345 135.274 141.114 139.184ZM167.405 119.598C189.74 106.114 215.144 98.1232 241.368 96.3337C238.684 91.6057 235.651 87.0708 232.293 82.7637C206.541 85.7252 181.75 94.133 159.695 107.385C162.019 111.597 164.593 115.675 167.405 119.598ZM139.944 157.926C136.694 161.655 133.613 165.493 130.646 169.536C135.052 174.553 139.807 179.275 144.878 183.669C147.69 179.629 150.753 175.756 154.05 172.071C149.092 167.626 144.414 162.9 140.039 157.918L139.944 157.926ZM123.565 180.213C120.19 185.792 117.208 191.581 114.639 197.541C119.504 202.338 124.655 206.858 130.065 211.079C132.196 205.168 134.905 199.462 138.154 194.039C133.077 189.656 128.257 185.005 123.715 180.107L123.565 180.213ZM109.874 210.231C105.178 225.331 103.027 241.045 103.504 256.771C110.296 258.864 117.289 260.313 124.382 261.096C122.875 248.657 123.498 236.05 126.227 223.779C120.486 219.483 115.139 214.937 109.863 210.109L109.874 210.231ZM90.7722 252.133C90.8085 234.539 93.921 217.058 99.979 200.423C96.4281 196.336 92.6421 192.115 89.2918 187.763C82.0506 204.805 77.6984 222.841 76.4024 241.179C76.3776 242.17 76.0636 243.136 75.4966 243.965C80.4339 246.976 85.566 249.68 90.8619 252.064L90.7722 252.133ZM105.378 187.679C108.204 181.746 111.4 175.981 114.948 170.417C111.672 166.551 108.615 162.266 105.674 157.848C101.86 163.41 98.3662 169.168 95.2086 175.097C98.3688 179.464 101.796 183.594 105.346 187.681L105.378 187.679ZM122.599 159.69C125.616 155.688 128.851 151.842 132.289 148.169C129.256 144.159 126.589 139.963 124.053 135.787C120.407 139.432 116.958 143.255 113.719 147.241C116.52 151.517 119.44 155.691 122.599 159.69ZM117.843 124.304C114.981 118.376 112.487 112.288 110.373 106.072C106.362 109.499 102.486 113.375 98.7709 117.268C101.115 123.621 103.908 129.81 107.129 135.791C110.485 131.806 114.086 128.077 117.843 124.304ZM127.641 115.48C132.752 111.069 138.128 106.953 143.742 103.152C141.194 97.5202 139.236 91.6536 137.899 85.6396C132.011 89.1978 126.348 93.0929 120.941 97.304C122.739 103.506 124.978 109.579 127.641 115.48ZM154.471 96.216C175.362 83.9388 198.49 75.6491 222.585 71.8021C217.538 66.6511 211.921 62.0478 205.833 58.0733C205.58 58.0955 205.326 58.1177 204.946 58.151C185.53 62.622 166.808 69.5773 149.277 78.8308C150.344 84.7367 152.048 90.515 154.362 96.0717L154.471 96.216ZM64.1299 235.948C66.0618 215.244 71.6553 194.989 80.6681 176.061C76.7116 170.256 73.0001 163.967 69.4789 157.663C57.115 180.951 54.3257 196.882 49.5565 221.936C53.8641 227.015 58.6564 231.693 63.871 235.909L64.1299 235.948ZM87.4459 163.38C90.8003 157.535 94.5185 151.889 98.5799 146.474C95.1194 140.466 92.0287 134.267 89.3237 127.906C84.9402 133.303 80.8806 138.937 77.1649 144.779C80.2259 151.163 83.6583 157.373 87.4459 163.38ZM94.2394 104.162C98.2421 100.274 102.361 96.6227 106.633 92.8963C102.869 76.7961 101.805 60.2024 103.483 43.7442C98.1946 45.4314 93.0383 47.4862 88.0545 49.8922C87.047 68.2036 89.125 86.532 94.2077 104.164L94.2394 104.162ZM117.72 84.2062C123.463 80.1358 129.473 76.1959 135.67 72.5779C134.712 61.0643 135.714 49.4649 138.637 38.2387C131.348 38.2817 124.075 39.0003 116.92 40.3848C116.585 41.089 116.391 41.8469 116.349 42.6186C114.738 56.4859 115.2 70.4912 117.72 84.2062ZM148.047 65.8664C161.627 59.0455 175.861 53.5248 190.544 49.3839C178.308 43.6483 165.109 40.035 151.547 38.7086C149.029 47.5598 147.85 56.7071 148.047 65.8664ZM39.2691 207.642C43.3034 185.249 51.3224 163.673 62.9713 143.868C54.5693 124.459 49.0893 103.976 46.6967 83.038C32.7706 100.844 24.6287 122.206 23.307 144.405C21.9853 166.605 27.5435 188.639 39.2744 207.703L39.2691 207.642ZM71.2675 131.024C75.3292 125.311 79.6853 119.797 84.3192 114.503C78.1151 95.9508 75.0686 76.535 75.2974 57.0061C69.1181 61.0063 63.3261 65.5384 57.9934 70.5463C58.3295 71.1788 58.4799 71.8887 58.4285 72.5997C59.885 92.5941 64.2294 112.277 71.3362 131.079L71.2675 131.024ZM254.699 139.582C240.008 138.559 225.242 140.692 211.467 145.825C207.269 147.469 203.168 149.337 199.183 151.421C202.328 153.576 205.604 155.549 208.993 157.329C222.616 164.535 237.8 168.606 253.365 169.226C255.182 159.551 255.641 149.693 254.729 139.917L254.699 139.582ZM187.747 158.665C182.338 162.528 177.18 166.708 172.301 171.181C192.734 186.557 217.049 196.44 242.791 199.832C245.859 193.906 248.386 187.737 250.342 181.394C233.691 180.399 217.487 175.918 202.86 168.262C197.583 165.426 192.532 162.218 187.747 158.665ZM163.539 180.16C160.253 183.739 157.224 187.529 154.473 191.504C174.873 206.983 198.609 217.89 223.973 223.44L225.558 224.039C226.265 223.362 226.962 222.563 227.658 221.764C230.564 218.404 233.273 214.891 235.774 211.242C209.337 206.887 184.5 196.2 163.539 180.16ZM147.888 202.014C145.584 206.341 143.586 210.811 141.906 215.395C141.369 216.549 140.968 217.814 140.558 218.957C158.123 230.953 177.638 240.063 198.319 245.923C204.317 242.413 210.003 238.428 215.318 234.009C190.803 227.849 167.867 216.966 147.888 202.014ZM137.512 231.958C135.9 241.915 135.796 252.037 137.203 262.004C152.599 262.128 167.891 259.337 182.211 253.791C166.472 248.214 151.471 240.887 137.512 231.958Z" fill="#F2EBE0"/>
</svg>
